<svg width="116" height="114" viewBox="0 0 116 114" fill="none" xmlns="http://www.w3.org/2000/svg">
<path d="M54.622 2.49771C54.7121 3.89435 54.8022 5.0432 54.8248 5.06572C54.8473 5.08825 55.4105 5.0432 56.0637 4.99815C56.8747 4.93057 57.2351 4.81793 57.2351 4.59267C57.2351 4.3674 56.9648 4.2773 56.334 4.2773H55.4555L55.3879 2.20486C55.3204 0.357693 55.2753 0.109902 54.8924 0.0423222C54.4869 -0.0477834 54.4643 0.0648489 54.622 2.49771Z" fill="white"/>
<path d="M60.8281 0.0450563C60.8281 0.0901093 60.9858 0.675797 61.166 1.35159C61.3462 2.02739 61.5039 3.17624 61.5039 3.87456C61.5039 4.86572 61.594 5.18109 61.8193 5.18109C62.0446 5.18109 62.2022 4.82067 62.2923 4.09982C62.3599 3.51413 62.6978 2.45539 63.0357 1.73454C63.5313 0.630744 63.5764 0.382953 63.306 0.225268C63.0357 0.0675826 62.8555 0.247795 62.4951 1.08127L62.022 2.14002L61.8418 1.05875C61.7067 0.225268 61.594 3.33786e-06 61.2561 3.33786e-06C61.0083 3.33786e-06 60.8281 0.0225301 60.8281 0.0450563Z" fill="white"/>
<path d="M48.1101 0.84913C47.9749 1.07439 48.7183 5.55716 48.921 5.73737C49.0562 5.87253 51.1061 5.51211 51.2638 5.3319C51.5791 5.01653 51.061 4.76873 50.3402 4.88137C49.4842 5.01653 49.5292 5.12916 49.0336 2.38093C48.7859 0.939236 48.4254 0.353548 48.1101 0.84913Z" fill="white"/>
<path d="M42.5115 2.20495C42.1511 2.27253 42.106 2.43022 42.2187 3.21864C42.2862 3.73675 42.3989 4.90813 42.489 5.78666C42.6016 6.95804 42.7368 7.43109 42.9395 7.43109C43.1197 7.43109 43.2549 7.20583 43.2549 6.89046C43.2549 6.16961 44.1109 5.85424 44.5164 6.4174C44.6966 6.64266 44.9669 6.7553 45.1696 6.66519C45.5751 6.50751 45.5526 6.43993 44.1109 4.09717C43.6378 3.33127 43.2549 2.5879 43.2549 2.47527C43.2549 2.18242 42.9846 2.09232 42.5115 2.20495ZM43.5928 4.52518C43.9532 5.3136 43.9757 5.47129 43.6829 5.62897C43.5252 5.74161 43.2999 5.76413 43.2323 5.67403C43.0296 5.47129 42.8719 3.60159 43.0521 3.60159C43.1197 3.60159 43.3675 4.00707 43.5928 4.52518Z" fill="white"/>
<path d="M71.7846 4.11809C70.816 7.18169 70.861 7.04653 71.3341 6.9339C71.5819 6.88884 71.8297 6.55095 71.9874 6.01031C72.3253 4.77136 72.6406 4.88399 72.7758 6.28063C72.9335 7.90254 73.4516 8.1278 73.4516 6.55095C73.4516 5.64989 73.5417 5.37957 73.9021 5.17683C74.4653 4.86146 74.8707 3.91535 74.7131 3.23956C74.6004 2.81155 73.2038 2.02313 72.5956 2.02313C72.5055 2.02313 72.145 2.96924 71.7846 4.11809ZM73.7895 3.71261C73.7895 4.27577 73.6994 4.41093 73.1813 4.45599C72.4829 4.54609 72.4154 4.36588 72.8208 3.48735C73.1813 2.69892 73.7895 2.83408 73.7895 3.71261Z" fill="white"/>
<path d="M35.8255 4.95288C35.5777 5.20067 35.375 5.56109 35.375 5.7413C35.375 6.21436 36.4563 8.57964 36.8843 9.0527C37.3348 9.54828 38.371 9.5708 38.8441 9.09775C39.2045 8.75985 39.3622 7.43079 39.0468 7.43079C38.6864 7.43079 38.4161 7.79121 38.4161 8.21922C38.4161 8.51206 38.2584 8.66975 37.9655 8.66975C37.6276 8.66975 37.3348 8.2868 36.7942 7.20553C36.186 5.94404 36.1409 5.69625 36.4112 5.42593C36.6815 5.13309 36.7716 5.15562 37.1321 5.47099C37.4474 5.76383 37.6051 5.78636 37.8079 5.58362C38.0106 5.38088 37.9881 5.2232 37.6952 4.90783C37.2222 4.36719 36.3887 4.38972 35.8255 4.95288Z" fill="white"/>
<path d="M78.0756 6.88571C76.9042 8.32741 76.5888 8.86804 76.7916 9.07078C76.9718 9.25099 77.1295 9.22847 77.3998 8.95815C77.9629 8.39499 78.8865 8.86804 78.6838 9.63394C78.5711 10.0845 78.6387 10.1521 78.9766 10.0845C79.3145 10.0394 79.5173 9.54384 79.9227 7.78677C80.7562 4.27264 80.3507 4.06991 78.0756 6.88571ZM79.292 7.40382C79.0667 8.25983 78.5937 8.59773 78.3008 8.1472C78.1882 7.94446 79.292 6.23245 79.4497 6.39013C79.5173 6.43519 79.4272 6.88571 79.292 7.40382Z" fill="white"/>
<path d="M30.9412 7.76958C30.7384 8.26517 33.2839 12.1622 33.6894 12.0046C33.8921 11.937 33.9822 11.7568 33.9147 11.5991C33.7344 11.1035 31.3241 7.43169 31.189 7.43169C31.1214 7.43169 31.0087 7.58937 30.9412 7.76958Z" fill="white"/>
<path d="M83.4926 9.93078C82.2987 11.8005 82.1185 12.3862 82.6816 12.3862C82.9745 12.3862 85.5875 8.28635 85.4524 8.06109C85.1595 7.61056 84.709 8.06109 83.4926 9.93078Z" fill="white"/>
<path d="M26.6991 10.5859C26.609 10.7211 26.8568 11.2167 27.2397 11.6897C27.7578 12.343 27.848 12.6133 27.6677 12.7935C27.2397 13.2215 26.9694 13.1089 26.3612 12.2754C25.753 11.4194 25.5052 11.3293 25.325 11.8024C25.1898 12.1403 28.0282 15.767 28.3886 15.767C28.9067 15.767 28.8166 15.2039 28.1858 14.5506C27.4875 13.8298 27.4875 13.8072 27.893 13.4243C28.2985 13.0639 28.3661 13.0864 29.0419 13.8523C29.6726 14.5731 30.1907 14.7308 30.1907 14.1902C30.1907 13.9199 27.2623 10.3607 27.037 10.3607C26.9244 10.3607 26.7667 10.4733 26.6991 10.5859Z" fill="white"/>
<path d="M88.2938 11.4859C87.7982 11.9815 87.7531 12.3194 88.046 13.5809C88.2036 14.2116 88.1811 14.5045 87.9333 14.7522C87.4603 15.2253 86.9196 14.9325 86.9872 14.2116C87.0323 13.8061 86.9422 13.6259 86.7169 13.6259C86.4916 13.6259 86.3565 13.8962 86.3114 14.3468C86.1763 15.7209 88.1135 16.2615 88.6767 15.0226C88.8569 14.6396 88.8569 14.1666 88.6992 13.4007C88.519 12.5221 88.5415 12.2743 88.8119 11.9815C89.3074 11.5084 89.9607 12.004 89.6453 12.6122C89.4877 12.9051 89.5327 13.0853 89.758 13.288C90.0058 13.4908 90.1184 13.4457 90.2986 13.0853C90.4338 12.8375 90.5464 12.4771 90.5464 12.2969C90.5464 11.8013 89.7354 11.0354 89.1948 11.0354C88.947 11.0354 88.5415 11.2381 88.2938 11.4859Z" fill="white"/>
<path d="M20.9827 15.9271C20.4195 16.6029 20.1492 17.076 20.2843 17.2111C20.4195 17.3463 20.6448 17.2787 20.9151 17.0535C21.3431 16.6705 21.2304 16.6029 23.8435 19.0133C24.4067 19.5314 24.6319 19.6215 24.8347 19.4187C25.0374 19.216 24.7446 18.8105 23.4831 17.6617C21.9288 16.2425 21.8837 16.1749 22.1991 15.6793C22.5145 15.2063 22.4694 14.8684 22.0639 14.8684C21.9738 14.8684 21.4782 15.3414 20.9827 15.9271Z" fill="white"/>
<path d="M92.0461 16.9824L90.2891 18.6494L91.1451 19.573C92.1362 20.6768 92.7219 20.5191 91.8884 19.3702L91.3478 18.6494L91.8884 18.2214C92.384 17.8159 92.4516 17.8159 92.812 18.1313C93.3076 18.5818 93.668 18.1763 93.24 17.6582C93.0148 17.3879 93.0598 17.2302 93.4878 16.7797L94.0285 16.2165L94.6592 16.8247C95.6278 17.7483 95.8756 17.1851 94.952 16.1489C94.5466 15.6984 94.1186 15.3155 94.0059 15.3155C93.9158 15.338 93.0373 16.0814 92.0461 16.9824Z" fill="white"/>
<path d="M16.9171 20.9701C16.5341 21.5107 16.2188 21.9838 16.2188 22.0513C16.2188 22.2315 20.2735 25.0699 20.3411 24.9798C20.3861 24.9347 20.679 24.5067 21.0169 24.0562C21.3548 23.6057 21.6251 23.1326 21.6251 22.9974C21.6251 22.5694 21.1746 22.7271 20.6339 23.3353C20.1384 23.921 20.1158 23.921 19.5301 23.5381C19.0346 23.2227 18.967 23.0875 19.1697 22.7046C19.4851 22.1189 19.2373 21.9162 18.6741 22.2541C18.3588 22.4568 18.111 22.4793 17.7956 22.2991C17.255 22.0063 17.2324 21.6684 17.7055 20.9701C17.9533 20.6322 17.9983 20.3844 17.8632 20.2492C17.7055 20.0915 17.3901 20.3393 16.9171 20.9701Z" fill="white"/>
<path d="M96.2365 21.7818L94.1641 23.246L94.6371 23.8993C95.5607 25.2058 96.0112 25.2058 97.9485 23.8768C99.5028 22.818 99.7056 22.0296 98.7369 20.7906L98.3315 20.3176L96.2365 21.7818ZM98.5567 21.7818C98.8045 22.4576 96.3942 24.3048 95.6508 24.0345C94.9975 23.7867 95.2904 23.3136 96.7096 22.3675C98.3315 21.2862 98.354 21.2637 98.5567 21.7818Z" fill="white"/>
<path d="M41.9405 20.7645C41.4675 21.2376 41.6251 22.2287 42.2334 22.7243C42.774 23.1298 45.77 24.3913 46.9639 24.6841C47.5721 24.8418 47.8425 24.1435 47.5046 23.2875C47.2568 22.5892 46.7161 22.3864 45.9277 22.6793C45.342 22.9045 45.297 22.882 45.1618 22.2738C44.869 20.9447 42.7515 19.9536 41.9405 20.7645Z" fill="#EF3C2E"/>
<path d="M71.2447 21.0575C70.8617 21.3729 70.5013 21.9361 70.4112 22.2965C70.276 22.8596 70.2084 22.9272 69.848 22.747C69.2398 22.4316 68.5865 22.4767 68.2712 22.8596C67.9783 23.1975 67.8882 24.4815 68.136 24.7293C68.3387 24.9321 72.844 23.175 73.4072 22.6794C73.9478 22.1838 74.0605 21.1927 73.6325 20.7647C73.1594 20.2916 71.9655 20.4493 71.2447 21.0575Z" fill="#EF3C2E"/>
<path d="M40.8881 24.6427C40.0321 25.0257 39.1986 25.7916 38.5904 26.8053C38.3426 27.2333 36.7883 31.6935 35.1438 36.7169C33.5219 41.7403 32.1028 45.9302 32.0127 46.0203C31.9 46.1104 31.0666 44.2858 30.1204 41.9656C26.9442 34.0588 25.8404 31.4232 25.5926 31.1529C25.3899 30.9276 24.0383 30.7699 23.0471 30.8375C22.6417 30.86 22.6867 31.4007 23.1823 32.6171C23.4076 33.2028 24.2636 35.2977 25.0745 37.2801C25.8855 39.2624 27.1019 42.2584 27.8002 43.9254C28.476 45.5923 29.332 47.6648 29.6699 48.5433L30.3457 50.1202L33.0489 50.1877C35.0312 50.2328 35.8196 50.1652 35.9773 49.9625C36.2702 49.602 36.6531 48.4982 39.1085 40.8392C40.1673 37.5279 41.1134 34.712 41.226 34.6219C41.3161 34.5093 42.2172 36.9872 43.2534 40.1409C44.2671 43.2721 45.4159 46.8088 45.7989 47.9801L46.5197 50.1202L49.2454 50.1877C51.2503 50.2328 52.0387 50.1652 52.2189 49.9625C52.3315 49.8048 53.0749 48.1378 53.8183 46.2907C54.5842 44.421 55.733 41.6277 56.3863 40.0508C57.5126 37.2801 57.9406 36.7169 58.1884 37.5504C58.3686 38.2037 62.5135 48.273 62.9866 49.2416L63.4146 50.1202L65.7798 50.1877C68.9336 50.2778 69.0462 50.2328 69.4742 48.9488C72.6955 38.8569 74.1822 34.4417 74.3399 34.5994C74.4751 34.7571 77.0656 42.6639 77.9892 45.7275C78.1243 46.1555 78.5298 47.3494 78.8902 48.3856L79.566 50.2553L82.4044 50.1877L85.2202 50.1202L87.4503 44.7138C88.6667 41.7403 90.3787 37.5504 91.2573 35.4104C92.1133 33.2704 92.8116 31.3331 92.7666 31.1303C92.7215 30.8375 92.4512 30.7699 91.46 30.8375C90.7842 30.86 90.1084 31.0177 89.9733 31.1529C89.748 31.3781 86.6394 38.7893 84.4768 44.3308C84.0713 45.3671 83.6659 46.1104 83.5532 46.0203C83.4631 45.9302 81.9989 41.6277 80.3094 36.4466C77.426 27.6387 77.2008 27.008 76.3222 26.0168C74.4976 23.9444 73.0559 23.8318 68.8885 25.4311C68.3479 25.6339 68.2803 25.724 68.483 26.2196C68.6632 26.7152 68.5506 26.9629 67.582 28.0893L66.4556 29.3958L68.2127 29.9364C69.1588 30.2293 69.9923 30.4996 70.0373 30.5447C70.15 30.6348 65.1266 45.9077 64.9238 46.0429C64.8337 46.0879 64.2706 44.9165 63.6624 43.4073C61.3647 37.618 59.8779 34.1264 59.6301 33.9687C59.4724 33.8786 58.6615 33.7885 57.783 33.7885C56.9269 33.7885 56.0935 33.8786 55.9583 33.9687C55.6655 34.1489 53.9084 38.2262 52.0162 43.0694C51.3404 44.7814 50.7322 46.178 50.6646 46.178C50.5069 46.178 45.4159 30.6348 45.5511 30.5221C45.5961 30.4771 46.362 30.2293 47.2856 29.9815C48.2092 29.7337 48.9751 29.4859 49.0202 29.4634C49.0427 29.4183 48.5696 28.7876 47.9389 28.0893C46.9027 26.8954 46.8126 26.7377 47.0604 26.2196C47.2856 25.724 47.2406 25.6339 46.6774 25.4311C43.6589 24.2823 42.1721 24.0796 40.8881 24.6427ZM44.2671 27.0305C45.1005 27.9541 43.7264 29.2156 42.8479 28.3371C42.465 27.9541 42.51 27.3459 42.938 26.9404C43.4111 26.4674 43.7715 26.4899 44.2671 27.0305ZM72.5828 26.9629C73.3262 27.6387 72.9433 28.6074 71.9296 28.6074C71.1862 28.6074 70.8258 27.8189 71.2988 27.1206C71.7043 26.4899 72.0197 26.4448 72.5828 26.9629Z" fill="#EF3C2E"/>
<path d="M56.8461 50.0524C57.0714 51.5166 57.4768 52.9358 57.657 52.9358C57.7472 52.9358 57.9048 53.1836 57.9724 53.4764C58.1752 54.2874 60.3377 57.396 61.0811 57.9142L61.7118 58.3647V57.1708C61.7118 53.9946 59.6619 50.3453 57.3642 49.3766L56.7109 49.1063L56.8461 50.0524Z" fill="white"/>
<path d="M0 62.4621C0 62.6198 0.0901059 62.8451 0.202738 62.9577C0.428003 63.2055 1.21643 65.9087 2.59054 71.0672C3.0636 72.8018 3.53666 74.4011 3.64929 74.6264C3.8295 74.9643 4.09982 75.0093 5.3613 74.9643L6.84805 74.8967L7.90679 71.5628C8.49248 69.7156 9.01059 68.1613 9.07817 68.0937C9.1908 68.0036 9.79901 69.9409 10.7226 73.3199L11.1506 74.8967L12.6824 74.9643C13.5159 75.0093 14.1917 74.9868 14.1917 74.9192C14.1917 74.8517 15.0477 72.0359 16.1064 68.6569C17.1652 65.2779 18.0212 62.4396 18.0212 62.3495C18.0212 62.1467 16.129 62.1017 15.9262 62.3044C15.8586 62.372 15.9037 62.6648 16.0388 62.9352C16.2191 63.3406 16.0614 64.0615 15.3631 66.3592C14.8675 67.9586 14.3944 69.603 14.3043 69.9859C14.2142 70.3914 14.079 70.7293 13.9889 70.7293C13.8988 70.7293 13.3357 69.0849 12.7725 67.0575C11.2632 61.6512 11.6011 62.1693 9.46112 62.1693C8.46995 62.1693 7.659 62.2368 7.659 62.3044C7.659 62.372 7.81668 63.0703 8.04195 63.8362L8.40237 65.2329L7.54637 68.0261C6.69036 70.8419 6.30741 71.6754 6.30741 70.8194C6.30741 70.5942 5.76678 68.5668 5.11351 66.3367L3.94213 62.2819L1.98233 62.2143C0.450529 62.1693 0 62.2143 0 62.4621Z" fill="white"/>
<path d="M20.2063 66.4951C18.7646 70.5724 17.6383 73.7036 17.2328 74.6047C17.0976 74.9651 17.2103 75.0101 18.3366 75.0101C19.6882 75.0101 19.7332 74.9876 19.3503 74.2893C19.1475 73.9289 19.2151 73.5009 19.6206 72.2619L20.1612 70.7076L22.2787 70.7752L24.3962 70.8427L25.0269 72.8926L25.6802 74.9651L27.7076 74.9876L29.7575 75.0327L29.4421 74.4019C29.2619 74.064 28.4735 71.7438 27.7076 69.2659C26.9417 66.788 26.1307 64.1974 25.928 63.5216L25.5225 62.2827L23.6303 62.2151L21.7156 62.1475L20.2063 66.4951ZM23.0897 66.6979C23.405 67.7341 23.7204 68.7703 23.788 68.973C23.9006 69.3335 23.7204 69.3785 22.3012 69.3785C21.0848 69.3785 20.7019 69.3109 20.7694 69.0857C20.837 68.9505 21.22 67.8692 21.6254 66.7204C22.0309 65.5715 22.4139 64.6705 22.4364 64.7155C22.4815 64.7606 22.7743 65.6616 23.0897 66.6979Z" fill="white"/>
<path d="M30.4128 62.5971C30.7056 63.1828 30.7281 74.0406 30.4128 74.2208C30.3001 74.2884 30.1875 74.5136 30.1875 74.6938C30.1875 74.9191 30.4803 75.0092 31.3138 75.0092C32.1473 75.0092 32.4401 74.9191 32.4401 74.6938C32.4401 74.5136 32.35 74.2884 32.2149 74.2208C32.0797 74.1307 31.9896 72.3736 31.9896 69.6479V65.2327L33.5439 67.6205C34.3774 68.9271 35.1208 70.0759 35.1658 70.2111C35.2109 70.3237 35.9092 71.45 36.7202 72.7115L38.1844 75.0092H39.4909H40.7749V69.1974C40.7749 64.4668 40.8425 63.318 41.1128 62.935C41.5408 62.3043 41.3606 62.1691 40.2118 62.1691C39.108 62.1691 38.9052 62.3043 39.2206 62.8674C39.3332 63.1152 39.4008 64.7146 39.3783 66.6068L39.3107 69.9182L36.7202 66.0437L34.1296 62.1691H32.1473C30.2551 62.1691 30.1875 62.1917 30.4128 62.5971Z" fill="white"/>
<path d="M43.431 62.2817C43.3409 62.3718 43.4085 62.6646 43.5887 62.9349C44.0843 63.6107 44.0843 73.5674 43.5887 74.2432C43.4085 74.5135 43.3409 74.7839 43.4085 74.874C43.6338 75.0992 49.0852 75.0316 50.662 74.7839C54.1762 74.1982 55.9558 72.1483 55.9783 68.7017C55.9783 66.404 55.5953 65.2552 54.424 64.1063C53.0048 62.6871 51.946 62.3943 47.4182 62.2366C45.3233 62.169 43.5212 62.1916 43.431 62.2817ZM50.8197 64.0838C51.8109 64.8272 52.3065 66.4265 52.3065 68.7017C52.2839 71.0219 51.9686 72.1257 51.1351 72.8466C50.4593 73.4097 48.9951 73.7702 47.9589 73.6125L47.4182 73.5449L47.3506 68.5215L47.3056 63.5206H48.6797C49.8286 63.5206 50.2115 63.6333 50.8197 64.0838Z" fill="white"/>
<path d="M57.8966 62.462C57.8966 62.6197 58.0092 62.8674 58.1219 62.9801C58.4147 63.2729 58.3246 73.7252 58.0318 74.5136L57.8516 75.0092L63.2129 74.9642L68.5967 74.8966L68.6643 73.2296C68.7318 71.2698 68.439 70.7292 67.9434 71.9231C67.4478 73.1395 66.6594 73.4324 63.9788 73.4324H61.7261V71.2923V69.1523H63.2804C64.4068 69.1523 64.9474 69.2424 65.2177 69.5128C65.871 70.166 66.2314 69.738 66.2314 68.2513C66.2314 67.0799 66.1864 66.8997 65.8034 66.8997C65.5781 66.8997 65.2628 67.0574 65.1051 67.2376C64.9023 67.4854 64.3842 67.5755 63.2579 67.5755H61.7036L61.7712 65.5932L61.8387 63.6333L63.4156 63.5658C66.0287 63.4531 68.0335 64.2416 68.0335 65.3679C68.0335 65.5932 68.1912 65.7734 68.3714 65.7734C68.6643 65.7734 68.7093 65.4805 68.6643 64.0163L68.5967 62.2818L63.2579 62.2142C58.9328 62.1691 57.8966 62.2142 57.8966 62.462Z" fill="white"/>
<path d="M70.6889 62.2818C70.5988 62.3719 70.6663 62.6647 70.8465 62.935C71.3421 63.6108 71.3421 73.5675 70.8465 74.2433C70.6663 74.5136 70.5988 74.784 70.6663 74.8741C70.7339 74.9416 71.7476 75.0092 72.919 75.0092C74.5859 75.0092 75.0139 74.9416 75.0139 74.6938C75.0139 74.5136 74.9238 74.2884 74.7887 74.2208C74.6535 74.1532 74.5634 73.0494 74.5634 71.7204C74.5634 69.1523 74.4958 69.265 76.0276 69.3776C77.4693 69.4677 77.9874 70.2336 78.2578 72.5764C78.5055 74.5812 78.866 74.8741 81.1862 74.9867C82.7405 75.0317 83.1235 74.9867 83.1235 74.7389C83.1235 74.5587 83.0334 74.3334 82.9207 74.1983C82.8081 74.0856 82.4477 73.117 82.1323 72.0582C81.4565 69.7831 81.0736 69.2424 79.8797 68.837L78.9786 68.5216L79.8797 68.0711C81.1411 67.4178 81.7268 66.7871 81.907 65.886C82.1323 64.6696 81.4565 63.5207 80.0824 62.8449C79.0462 62.3493 78.6632 62.3043 74.9013 62.2142C72.6712 62.1691 70.779 62.1917 70.6889 62.2818ZM77.154 63.4306C77.6495 63.6333 78.1676 64.6921 78.1676 65.5256C78.1676 67.0799 77.3567 67.8007 75.5771 67.8007H74.5634V65.5481V63.2955H75.6672C76.2754 63.2955 76.9512 63.363 77.154 63.4306Z" fill="white"/>
<path d="M84.5938 68.5892V75.0092H86.6887C88.7837 75.0092 88.7837 75.0092 88.6035 74.4911C88.3557 73.8378 88.3782 63.0702 88.626 62.5521C88.7837 62.1917 88.626 62.1691 86.7112 62.1691H84.5938V68.5892Z" fill="white"/>
<path d="M91.4073 68.0485C91.4523 72.0132 91.4073 74.0181 91.2496 74.1757C90.6864 74.7389 91.0018 75.0092 92.1281 75.0092C92.9616 75.0092 93.2544 74.9191 93.2544 74.6938C93.2544 74.5136 93.1643 74.2884 93.0292 74.2208C92.7589 74.0631 92.7138 65.5481 92.9841 65.5706C93.1193 65.5706 95.417 69.1298 98.0075 73.3648L98.9987 75.0092L100.35 74.9416L101.702 74.8966L101.814 68.9271C101.882 65.6382 102.017 62.7773 102.13 62.5521C102.288 62.2142 102.175 62.1691 101.206 62.1691C99.8772 62.1691 99.697 62.2818 100.148 62.9576C100.395 63.363 100.463 64.1515 100.418 66.8096L100.35 70.166L97.6922 66.1563L95.0115 62.1691H93.1869H91.3397L91.4073 68.0485Z" fill="white"/>
<path d="M107.586 62.7319C106.009 63.3626 105.04 64.2637 104.162 65.8405C102.788 68.2959 103.531 71.9452 105.739 73.7698C107.721 75.3918 109.568 75.572 114.839 74.6709L115.583 74.5357L115.515 71.5623L115.447 68.5888L113.555 68.5212C111.686 68.4536 111.663 68.4536 111.843 68.9717C111.956 69.2646 112.069 70.3008 112.114 71.2919C112.226 73.3869 112.046 73.6572 110.424 73.6572C108.374 73.6572 107.406 72.1705 107.383 68.9267C107.383 67.485 107.496 66.7641 107.834 65.9982C109.027 63.2725 111.798 62.7769 113.645 64.9395C114.073 65.4351 114.434 65.9306 114.434 66.0433C114.434 66.1334 114.591 66.2235 114.772 66.2235C115.042 66.2235 115.11 65.8631 115.11 64.3087C115.11 62.4616 115.087 62.394 114.659 62.6643C114.299 62.8896 113.938 62.867 112.767 62.5517C110.739 62.011 109.185 62.0786 107.586 62.7319Z" fill="white"/>
<path d="M73.3308 80.2852C70.8304 81.0737 68.8256 82.8307 67.7218 85.1509C67.091 86.48 67.0234 86.8179 67.0234 88.8678C67.0234 90.8727 67.091 91.2781 67.6542 92.4946C68.4426 94.1841 69.3211 95.0851 70.9881 95.851C73.0155 96.7746 74.4346 96.9323 77.7686 96.6394C79.3679 96.4818 81.2827 96.4367 82.0261 96.5268L83.3551 96.6845V92.7198V88.7552H80.652C79.1652 88.7552 77.9488 88.8228 77.9488 88.9129C77.9488 89.0255 78.1065 89.2958 78.2867 89.5211C78.5345 89.859 78.6246 90.6249 78.6246 92.6072V95.2428L77.4757 95.4906C75.6736 95.8735 74.705 95.6257 73.6913 94.4769C72.5424 93.1704 72.2045 91.8864 72.2045 88.8678C72.2045 86.5251 72.2496 86.2998 72.9254 84.9257C73.4435 83.8895 73.9391 83.2587 74.6149 82.7857C75.4709 82.1774 75.7637 82.1099 77.2054 82.1099C78.6246 82.1099 78.9174 82.1774 79.7959 82.7857C80.3141 83.1686 80.9898 83.912 81.2827 84.4301C81.6206 85.0383 81.9585 85.3762 82.2513 85.3762C82.6568 85.3762 82.6793 85.196 82.6793 82.8758C82.6793 80.5781 82.6568 80.3753 82.2964 80.533C81.4854 80.8484 81.1025 80.8259 79.4806 80.3979C77.5884 79.9023 74.6824 79.8572 73.3308 80.2852Z" fill="white"/>
<path d="M91.5685 80.1892C88.4373 80.9551 86.6352 83.0275 86.6352 85.8208C86.6352 87.4202 86.9505 88.2311 87.9867 89.2899C88.9329 90.236 89.6762 90.5288 92.3344 91.092C95.1727 91.7002 95.9386 92.0381 96.3891 92.849C96.7045 93.3897 96.7045 93.5248 96.3441 94.2682C95.826 95.372 94.5194 95.9577 92.5821 95.9577C90.1493 95.9577 88.3472 94.8088 87.3785 92.6238C86.7027 91.092 86.5 91.4299 86.5 94.1556V96.6335H87.1307C87.4686 96.6335 88.595 96.8362 89.6537 97.084C91.9514 97.6021 94.7897 97.6697 96.3215 97.1966C97.8533 96.7461 99.4752 95.6198 100.196 94.5385C100.714 93.7726 100.827 93.3221 100.872 91.7678C100.939 90.1909 100.894 89.7629 100.466 89.0421C99.723 87.713 98.822 87.2399 95.0826 86.2938C93.1904 85.8208 91.4558 85.2351 91.2306 85.0323C90.735 84.5818 90.6223 83.3654 91.0053 82.6445C91.4108 81.9012 92.5821 81.4732 94.0914 81.4732C95.9611 81.4957 97.8083 82.3742 98.7769 83.7258C99.1599 84.2439 99.6329 84.6719 99.8582 84.6719C100.196 84.6945 100.241 84.4467 100.241 82.4418C100.241 80.2793 100.219 80.1892 99.8131 80.4144C99.2049 80.7298 98.1462 80.6847 96.5243 80.3018C95.1051 79.9639 92.6948 79.8963 91.5685 80.1892Z" fill="white"/>
<path d="M14.4219 80.3021C14.4219 80.3697 14.5796 80.6625 14.7598 80.9554C15.0526 81.4059 17.4404 89.4253 18.9497 95.1245L19.4903 97.1069L21.7205 97.0393L23.928 96.9717L25.3247 92.534C26.0681 90.1011 26.7439 88.0512 26.834 87.9837C26.9015 87.9161 27.3746 89.4253 27.9152 91.3176C28.4333 93.2098 29.019 95.2822 29.1992 95.9355L29.5597 97.0843H31.6321H33.7271L34.4029 94.8768C34.7858 93.6828 35.9572 89.8984 37.0159 86.4969L38.9307 80.3021L37.4665 80.2345C36.6555 80.1895 35.9347 80.212 35.8671 80.2796C35.822 80.3472 35.9347 80.6625 36.1374 80.9779C36.4978 81.5186 36.4528 81.7213 35.0111 86.4293C34.2001 89.1325 33.4567 91.4302 33.3666 91.5203C33.209 91.678 31.8123 87.015 30.4382 81.879L30.0327 80.3021L27.4197 80.2345L24.8066 80.167L25.2571 81.6988C25.5049 82.5322 25.7527 83.4333 25.8203 83.6811C25.9104 84.0866 23.9055 91.0473 23.4325 91.9033C23.2973 92.1285 23.1847 91.9258 23.0045 91.2275C22.8468 90.6643 22.1034 87.9611 21.3375 85.1904L19.9409 80.1895H17.1926C15.6608 80.1895 14.4219 80.2345 14.4219 80.3021Z" fill="white"/>
<path d="M40.3203 80.3479C40.3428 80.4605 40.478 80.7759 40.6582 81.0912C40.9285 81.5418 40.9736 83.006 40.9961 88.7052C40.9961 94.8549 40.9511 95.8235 40.6357 96.3191C40.4329 96.612 40.2978 96.9048 40.3428 96.9724C40.5005 97.1076 46.1772 97.1526 46.3349 97.0175C46.4025 96.9499 46.2898 96.657 46.0871 96.3642C45.7717 95.9362 45.7267 94.9 45.7267 88.6376C45.7492 82.6681 45.7942 81.3616 46.0646 81.0011C46.2448 80.7533 46.4025 80.483 46.4025 80.3704C46.4025 80.2803 45.0283 80.1902 43.3614 80.1902C41.6944 80.1902 40.3203 80.2578 40.3203 80.3479Z" fill="white"/>
<path d="M49.624 80.7104C49.9169 81.1834 49.9619 82.2647 49.9394 88.5496C49.8944 95.2625 49.8493 95.8932 49.4664 96.4564L49.0609 97.0871H50.7729H52.5074L52.147 96.4113C51.8542 95.8482 51.8091 94.8345 51.8542 90.0589L51.9217 84.3822L53.7013 87.198C54.67 88.7298 55.8864 90.6445 56.382 91.433C56.9001 92.2214 57.4407 93.0098 57.5984 93.1675C57.7786 93.3252 58.5896 94.6092 59.4456 96.0058C60.2791 97.4025 61.6532 99.6101 62.4641 100.894C63.2976 102.201 63.9734 103.327 63.9734 103.395C63.9734 103.552 62.0361 104.431 57.8913 106.165C54.0618 107.765 49.2636 109.184 45.6369 109.815C41.8524 110.468 36.6488 110.175 33.8105 109.161C33.2698 108.959 32.7742 108.846 32.7292 108.891C32.6841 108.936 33.2248 109.567 33.9456 110.288C38.4509 114.838 46.6956 115.221 56.6523 111.346C58.3193 110.693 62.3966 108.576 65.4151 106.751L66.0684 106.368L68.1183 108.463C71.4747 111.864 74.9213 113.464 79.4941 113.689C86.0268 114.004 90.4645 111.121 90.4195 106.548C90.397 104.07 89.2481 102.313 86.9504 101.142C83.3236 99.3172 76.0251 99.3398 70.1682 101.232C69.177 101.547 68.321 101.728 68.2309 101.637C68.1633 101.547 67.1722 100.038 66.0233 98.281L63.9734 95.1048V88.2567C63.9734 82.5801 64.041 81.3186 64.3113 80.9582C64.4915 80.7329 64.6492 80.4626 64.6492 80.3499C64.6492 80.2598 63.8833 80.1923 62.9597 80.1923H61.2477L61.6081 80.8681C61.901 81.4312 61.946 82.3999 61.901 86.6574L61.8334 91.7934L60.7296 89.8786C59.1527 87.1755 57.8462 85.058 57.6435 84.9228C57.5534 84.8552 56.8776 83.7965 56.1342 82.5575L54.8051 80.3049L52.0344 80.2373L49.2636 80.1697L49.624 80.7104ZM84.0895 102.381C87.6262 103.124 89.4283 104.611 89.4283 106.819C89.4283 108.148 89.0454 108.936 87.9641 109.882C86.7251 110.986 85.5312 111.504 83.5714 111.774C78.7282 112.495 74.5608 110.648 70.9791 106.21C69.4699 104.363 69.4473 104.408 73.0966 103.395C77.5794 102.156 81.4089 101.818 84.0895 102.381Z" fill="white"/>
</svg>
