<?xml version="1.0" encoding="UTF-8"?><svg id="Layer_1" xmlns="http://www.w3.org/2000/svg" width="273.45" height="251.22" viewBox="0 0 273.45 251.22"><defs><style>.cls-1{fill:#a9822d;}.cls-2{fill:#fdfeff;font-family:Metropolis-Bold, Metropolis;font-size:73.28px;font-weight:700;}.cls-3{fill:#173331;}</style></defs><path class="cls-3" d="M40.11,81.56C27.54,103.65,14.97,125.75,2.4,147.84c-1.57,2.76-2.4,5.89-2.4,9.07v87.84c0,3.86,2.92,6.44,5.98,6.44,1.4,0,2.82-.54,4.01-1.74l53.38-53.94c1.44-1.46,3.29-2.19,5.14-2.19,1.77,0,3.55,.68,4.97,2.03l54.93,52.38c2.39,2.28,5.38,3.42,8.37,3.42s5.92-1.12,8.3-3.36l55.33-52.03c1.42-1.33,3.18-2,4.93-2,1.85,0,3.69,.73,5.13,2.19l53.01,53.54c1.19,1.2,2.61,1.73,4,1.73,3.05,0,5.95-2.57,5.95-6.41V10.04C273.45,4.23,269.04,0,264.17,0c-1.38,0-2.79,.34-4.15,1.07-41.52,22.49-82.71,53.66-124.23,76.14H47.57c-3.08,0-5.93,1.66-7.46,4.34Z"/><path class="cls-1" d="M104.68,58.84L12.74,1.06C6.93-2.18,0,2.39,0,9.47V114.95C0,118.28,4.42,119.45,6.06,116.56c8.87-15.59,17.74-31.18,26.61-46.76,1.71-3,4.9-4.86,8.35-4.86h61.91c3.31,0,4.56-4.33,1.76-6.1ZM21.14,43.82c-5.74,0-10.4-4.66-10.4-10.4s4.66-10.4,10.4-10.4,10.4,4.66,10.4,10.4-4.66,10.4-10.4,10.4Z"/><text class="cls-2" transform="translate(-309.07 -17.21)"><tspan x="0" y="0">LOGOMARK</tspan></text></svg>