<svg width="2714" height="2987" viewBox="0 0 2714 2987" fill="none" xmlns="http://www.w3.org/2000/svg">
<path d="M1179.49 526.423C1162.29 530.986 1135.26 540.112 1119.82 546.429C1094.2 556.958 1018.39 600.129 1007.51 610.307C1004.7 612.764 998.733 617.677 993.82 621.538C953.457 652.424 897.652 707.878 870.627 744.38C866.766 749.294 860.799 756.313 857.641 759.472C854.131 762.631 851.323 766.491 851.323 768.246C851.323 770.001 849.217 773.16 847.111 775.617C844.654 778.425 840.443 783.338 838.337 786.848C835.88 790.709 824.298 807.205 812.716 824.052C801.133 841.249 791.657 855.99 791.657 857.394C791.657 858.447 789.551 862.308 786.743 865.116C784.286 868.275 773.757 886.525 763.579 905.829C672.676 1075.7 618.626 1251.89 594.408 1453.35C587.74 1511.61 588.793 1670.61 596.514 1723.6C614.765 1850.66 651.266 1953.14 709.178 2039.48C802.888 2179.87 942.577 2269.37 1121.57 2305.17C1158.78 2312.54 1171.06 2313.25 1279.51 2313.25C1387.97 2313.25 1400.25 2312.54 1436.4 2305.17C1526.25 2286.92 1598.9 2259.19 1669.1 2216.38C1679.63 2210.06 1689.1 2203.39 1689.46 2201.99C1690.16 2200.58 1692.96 2199.18 1695.77 2199.18C1698.58 2199.18 1700.69 2197.77 1700.69 2196.37C1700.69 2194.97 1705.95 2190.75 1712.27 2187.24C1725.61 2179.17 1736.49 2169.34 1777.55 2128.98C1813 2093.88 1828.09 2075.98 1838.27 2058.09C1842.48 2050.71 1847.04 2044.75 1848.8 2044.75C1850.2 2044.75 1851.61 2042.29 1851.61 2039.48C1851.61 2036.68 1853.01 2034.22 1854.77 2034.22C1856.52 2034.22 1858.63 2031.41 1860.03 2027.9C1861.08 2024.74 1866.7 2013.86 1872.66 2004.39C1902.5 1955.25 1931.28 1879.79 1947.77 1807.84C1995.51 1600.06 1967.08 1320.68 1873.37 1077.81C1808.44 909.339 1730.87 783.338 1628.74 680.853C1545.2 596.97 1467.29 548.886 1378.49 526.423C1349.01 519.053 1337.78 518 1278.11 518C1219.5 518.351 1207.21 519.404 1179.49 526.423Z" fill="#A64822"/>
</svg>
